<svg width="132" height="30" viewBox="0 0 132 30" fill="none" xmlns="http://www.w3.org/2000/svg">
<path d="M86.2062 0.776855C88.6237 0.776855 91.0382 0.776855 93.4557 0.776855C93.447 1.06034 93.4353 1.34382 93.4353 1.62441C93.4353 10.5397 93.4353 19.4549 93.4353 28.3701C93.4353 28.6536 93.4499 28.9371 93.4557 29.2177H86.9975C86.9277 29.0412 86.8811 28.8503 86.7822 28.6941C84.0593 24.4419 81.3306 20.1954 78.599 15.949C78.5233 15.8304 78.4244 15.7262 78.2412 15.489C78.2208 15.8419 78.2004 16.0473 78.2004 16.2556C78.2004 17.9796 78.2004 19.7037 78.2004 21.4306C78.1946 24.0282 78.1801 26.6259 78.1713 29.2206H70.9219C70.9306 28.9371 70.9422 28.6536 70.9422 28.373C70.9422 19.4578 70.9422 10.5425 70.9422 1.6273C70.9422 1.34382 70.9277 1.06034 70.9219 0.779748C73.0746 0.779748 75.2273 0.779748 77.3801 0.779748C80.2804 5.33283 83.1837 9.8888 86.0841 14.4419C86.1393 14.4216 86.1946 14.3985 86.247 14.3782C86.247 14.1439 86.247 13.9096 86.247 13.6753C86.247 10.7942 86.2499 7.9131 86.247 5.03199C86.247 3.61458 86.2237 2.19716 86.2121 0.779748L86.2062 0.776855Z" fill="#FF3333"/>
<path d="M26.4933 0.776855C28.8671 0.776855 31.238 0.776855 33.6119 0.776855C33.6031 1.06034 33.5915 1.34382 33.5915 1.62441C33.5915 10.5397 33.5915 19.4549 33.5915 28.3701C33.5915 28.6536 33.606 28.9371 33.6119 29.2177H27.2846C27.2206 29.0817 27.1682 28.9342 27.0868 28.8098C24.3144 24.4882 21.542 20.1694 18.7639 15.8535C18.6999 15.7552 18.6126 15.6742 18.4526 15.4861V29.2177H11.2031C11.2119 28.9342 11.2235 28.6507 11.2235 28.3701C11.2235 19.4549 11.2235 10.5397 11.2235 1.62441C11.2235 1.34093 11.2089 1.05745 11.2031 0.776855C13.3559 0.776855 15.5086 0.776855 17.6613 0.776855C17.702 0.875207 17.7253 0.985129 17.7835 1.0748C20.5559 5.4254 23.3311 9.7731 26.1122 14.1208C26.1849 14.2336 26.2984 14.3233 26.4933 14.5316V0.776855Z" fill="#FF3333"/>
<path d="M131.82 28.564V29.2206H124.306C124.318 29.1801 124.347 29.1309 124.335 29.0962C123.925 27.8119 123.523 26.5275 123.075 25.2576C123.023 25.113 122.703 24.9828 122.508 24.9799C120.012 24.9626 117.513 24.9568 115.017 24.9857C114.811 24.9857 114.488 25.2056 114.418 25.3965C113.95 26.6606 113.534 27.9449 113.1 29.2206H105.586C105.728 28.7896 105.856 28.3528 106.014 27.9247C108.248 21.8645 110.491 15.8072 112.725 9.74706C113.824 6.75892 114.91 3.76789 116 0.776855C117.845 0.776855 119.692 0.776855 121.536 0.776855C124.326 8.37014 127.113 15.9663 129.912 23.5567C130.528 25.2316 131.183 26.8949 131.82 28.564ZM121.214 18.9198C120.472 16.5825 119.753 14.3291 119.035 12.0728C118.985 12.0786 118.933 12.0843 118.883 12.0872C118.124 14.3464 117.362 16.6056 116.582 18.9198H121.214Z" fill="#FF3333"/>
<path d="M37.6982 0.776855C44.1128 0.776855 50.5302 0.776855 56.9448 0.776855V7.04819H44.7964V11.9426H55.2779V18.2139C55.0219 18.2139 54.8037 18.2139 54.5884 18.2139C51.5804 18.2139 48.5695 18.2139 45.5615 18.2139C44.7062 18.2139 44.7062 18.2082 44.7062 19.0702C44.6975 22.4546 44.6917 25.839 44.6829 29.2235H37.6953C37.704 28.94 37.7157 28.6565 37.7157 28.3759C37.7157 19.4607 37.7157 10.5454 37.7157 1.6302C37.7157 1.34671 37.7011 1.06323 37.6953 0.782641L37.6982 0.776855Z" fill="#FF3333"/>
<path d="M7.24364 29.2206H0V0.776855H7.24364C7.23491 1.06034 7.22327 1.34382 7.22327 1.62441C7.22327 10.5397 7.22327 19.4549 7.22327 28.3701C7.22327 28.6536 7.23782 28.9371 7.24364 29.2177V29.2206Z" fill="#FF3333"/>
<path d="M59.8438 29.2206C59.8525 28.9371 59.8641 28.6537 59.8641 28.3731C59.8641 19.4578 59.8641 10.5426 59.8641 1.62734C59.8641 1.34386 59.8496 1.06038 59.8438 0.779785H67.0932C67.0845 1.06327 67.0728 1.34675 67.0728 1.62734C67.0728 10.5426 67.0728 19.4578 67.0728 28.3731C67.0728 28.6566 67.0874 28.94 67.0932 29.2206H59.8438Z" fill="#FF3333"/>
<path d="M104.664 29.2206H97.4141C97.4228 28.9371 97.4344 28.6537 97.4344 28.3731C97.4344 19.4578 97.4344 10.5426 97.4344 1.62734C97.4344 1.34386 97.4199 1.06038 97.4141 0.779785C99.8315 0.779785 102.246 0.779785 104.664 0.779785C104.655 1.06327 104.643 1.34675 104.643 1.62734C104.643 10.5426 104.643 19.4578 104.643 28.3731C104.643 28.6566 104.658 28.94 104.664 29.2206Z" fill="#FF3333"/>
</svg>
